<svg width="786" height="238" viewBox="0 0 786 238" fill="none" xmlns="http://www.w3.org/2000/svg">
<g filter="url(#filter0_d_0_142)">
<path d="M154.742 184.459H91.7539L83.0869 214H26.5684L93.8291 35.0449H154.132L221.393 214H163.531L154.742 184.459ZM143.146 145.763L123.37 81.4316L103.717 145.763H143.146ZM239.215 35.0449H294.513V169.933H380.816V214H239.215V35.0449ZM394.61 124.645C394.61 95.429 402.748 72.6833 419.024 56.4072C435.3 40.1312 457.965 31.9932 487.018 31.9932C516.803 31.9932 539.752 40.0091 555.865 56.041C571.979 71.9915 580.035 94.3711 580.035 123.18C580.035 144.094 576.495 161.266 569.415 174.693C562.416 188.04 552.244 198.456 538.897 205.943C525.632 213.349 509.072 217.052 489.215 217.052C469.033 217.052 452.309 213.837 439.044 207.408C425.86 200.979 415.159 190.807 406.939 176.891C398.72 162.975 394.61 145.559 394.61 124.645ZM449.908 124.889C449.908 142.955 453.245 155.935 459.918 163.829C466.673 171.723 475.828 175.67 487.384 175.67C499.265 175.67 508.461 171.804 514.972 164.073C521.482 156.342 524.737 142.467 524.737 122.447C524.737 105.602 521.319 93.3132 514.483 85.582C507.729 77.7695 498.533 73.8633 486.896 73.8633C475.746 73.8633 466.795 77.8102 460.04 85.7041C453.285 93.598 449.908 106.66 449.908 124.889ZM574.664 35.0449H636.065L672.198 95.4697L708.331 35.0449H769.366L699.786 139.049V214H644.366V139.049L574.664 35.0449Z" fill="white"/>
</g>
<defs>
<filter id="filter0_d_0_142" x="0.568359" y="-0.00683594" width="794.798" height="237.059" filterUnits="userSpaceOnUse" color-interpolation-filters="sRGB">
<feFlood flood-opacity="0" result="BackgroundImageFix"/>
<feColorMatrix in="SourceAlpha" type="matrix" values="0 0 0 0 0 0 0 0 0 0 0 0 0 0 0 0 0 0 127 0" result="hardAlpha"/>
<feOffset dy="-6"/>
<feGaussianBlur stdDeviation="13"/>
<feColorMatrix type="matrix" values="0 0 0 0 0 0 0 0 0 0 0 0 0 0 0 0 0 0 1 0"/>
<feBlend mode="normal" in2="BackgroundImageFix" result="effect1_dropShadow_0_142"/>
<feBlend mode="normal" in="SourceGraphic" in2="effect1_dropShadow_0_142" result="shape"/>
</filter>
</defs>
</svg>
